<?xml version="1.0" standalone="no"?>
<!DOCTYPE svg PUBLIC "-//W3C//DTD SVG 20010904//EN"
 "http://www.w3.org/TR/2001/REC-SVG-20010904/DTD/svg10.dtd">
<svg version="1.0" xmlns="http://www.w3.org/2000/svg"
 width="1500.000000pt" height="1500.000000pt" viewBox="0 0 1500.000000 1500.000000"
 preserveAspectRatio="xMidYMid meet">
<metadata>
Created by potrace 1.14, written by Peter Selinger 2001-2017
</metadata>
<g transform="translate(0.000000,1500.000000) scale(0.100000,-0.100000)"
fill="#000000" stroke="none">
<path d="M6265 14984 c-264 -56 -498 -250 -604 -500 -84 -200 -79 -426 14
-620 21 -43 41 -81 44 -84 3 -3 20 -23 36 -45 177 -238 496 -319 765 -192 134
62 244 215 270 373 6 39 10 75 9 80 -1 5 -1 18 0 29 1 17 4 15 17 -10 24 -45
64 -152 69 -188 3 -18 9 -57 14 -87 9 -52 7 -257 -2 -310 -3 -14 -8 -45 -11
-70 -18 -116 -109 -337 -191 -466 l-36 -57 -37 35 c-206 196 -494 185 -652
-25 -32 -42 -70 -124 -77 -167 -5 -29 -4 -135 1 -157 19 -85 83 -177 157 -224
l49 -32 -42 -25 c-24 -14 -108 -56 -188 -95 -80 -38 -277 -134 -439 -213 -162
-79 -295 -143 -295 -142 -19 38 -88 129 -124 164 -153 146 -353 181 -539 94
-274 -128 -316 -497 -75 -651 l44 -28 -79 -57 c-43 -32 -82 -62 -88 -66 -47
-38 -250 -203 -271 -220 -15 -13 -78 -72 -142 -133 -63 -60 -118 -110 -122
-110 -4 0 -29 18 -55 40 -178 151 -348 202 -561 170 -120 -18 -272 -101 -361
-199 -163 -178 -189 -477 -58 -656 87 -119 257 -204 370 -186 19 3 35 4 35 2
0 -3 -22 -47 -48 -98 -158 -305 -282 -690 -337 -1048 -3 -19 -7 -46 -10 -60
-4 -27 -10 -77 -20 -175 -4 -33 -8 -76 -11 -95 -2 -19 -6 -107 -9 -195 -10
-270 -12 -290 -30 -324 -35 -68 -76 -96 -162 -112 -100 -19 -93 31 -93 -626
l0 -574 25 -24 c15 -16 36 -25 55 -25 41 0 40 0 81 -20 48 -25 96 -81 108
-127 14 -55 13 -3536 -1 -3585 -22 -76 -96 -136 -177 -143 -46 -4 -78 -22 -85
-50 -3 -11 -6 -606 -6 -1321 l0 -1301 21 -27 20 -26 5075 0 c3480 0 5081 3
5095 10 19 11 19 36 19 1343 0 733 -4 1337 -8 1343 -8 13 -31 21 -87 29 -59 8
-116 52 -145 110 l-25 50 0 1765 c-1 1878 -3 1803 46 1870 26 35 93 70 147 77
79 11 72 -48 72 628 l0 604 -22 15 c-13 9 -44 16 -73 16 -54 0 -90 18 -124 62
-36 45 -43 80 -46 233 -4 180 -16 371 -30 470 -2 17 -7 53 -10 80 -48 378
-169 782 -334 1115 l-67 135 60 1 c248 2 440 219 430 483 -10 228 -138 412
-357 511 -109 49 -259 67 -375 46 -111 -21 -237 -85 -325 -166 -30 -28 -57
-50 -59 -50 -2 0 -38 33 -79 73 -165 158 -352 317 -527 445 l-103 75 31 15
c76 37 147 135 169 231 51 230 -145 464 -399 476 -96 5 -153 -7 -234 -46 -81
-39 -160 -109 -211 -186 -22 -32 -42 -61 -45 -66 -3 -4 -89 34 -191 84 -101
51 -267 132 -369 181 -102 49 -236 115 -297 146 l-113 57 36 21 c143 87 205
241 169 418 -29 139 -183 281 -330 304 -135 21 -279 -26 -381 -125 l-47 -46
-18 24 c-25 33 -123 222 -149 288 -84 215 -107 501 -55 699 16 62 72 198 79
191 3 -2 5 -33 7 -69 10 -275 226 -477 519 -486 316 -9 578 208 656 543 92
397 -174 822 -591 945 -104 30 -310 34 -430 8 -388 -86 -703 -368 -845 -758
l-27 -75 -28 74 c-117 311 -332 550 -612 681 -46 22 -91 41 -101 43 -9 2 -44
11 -77 20 -33 9 -74 20 -90 24 -49 12 -274 9 -340 -5z m310 -149 c132 -20 311
-101 430 -195 283 -225 430 -583 429 -1045 0 -403 -147 -805 -409 -1120 -66
-79 -210 -232 -253 -269 l-22 -19 14 49 c21 74 29 131 28 216 -1 70 -22 181
-42 218 -6 11 3 33 30 72 118 171 203 360 248 552 23 99 26 131 26 296 0 140
-4 204 -17 265 -75 337 -331 619 -599 661 -161 25 -295 -20 -375 -124 -63 -83
-75 -209 -30 -299 53 -104 207 -200 289 -180 28 7 56 53 51 83 -5 29 -39 57
-94 77 -25 10 -61 33 -79 52 -30 30 -35 43 -36 88 -2 43 2 59 23 85 75 97 238
90 355 -16 47 -43 73 -91 92 -171 50 -214 -67 -413 -270 -460 -222 -52 -438
56 -544 272 -93 189 -87 384 17 568 105 186 279 310 484 347 51 10 182 8 254
-3z m2179 -9 c110 -26 212 -83 300 -165 135 -128 212 -290 215 -455 9 -402
-360 -682 -693 -525 -65 30 -123 91 -156 162 -45 97 -54 193 -26 286 42 142
133 219 275 236 134 15 241 -109 180 -209 -21 -35 -92 -85 -132 -93 -33 -7
-67 -47 -67 -78 0 -12 9 -34 21 -49 28 -35 72 -34 152 3 73 34 136 91 169 152
32 62 33 184 0 250 -108 221 -431 245 -672 50 -106 -86 -191 -193 -259 -328
-45 -89 -65 -156 -88 -298 -10 -64 -7 -315 6 -380 6 -33 13 -71 16 -85 29
-153 124 -371 231 -531 l54 -80 -21 -62 c-31 -90 -35 -241 -10 -349 11 -45 18
-84 17 -86 -6 -6 -207 210 -278 299 -187 233 -305 481 -364 764 -25 121 -29
167 -29 350 0 193 4 236 36 378 39 175 87 291 174 422 158 239 418 403 690
438 60 7 192 -1 259 -17z m-1210 -1858 c39 -116 125 -293 192 -396 155 -238
400 -495 659 -692 75 -57 76 -55 -20 -34 -25 5 -119 22 -165 29 -19 3 -46 7
-60 10 -14 2 -52 7 -85 10 -33 3 -71 8 -85 10 -159 27 -852 27 -960 0 -8 -2
-40 -7 -70 -10 -30 -3 -66 -8 -80 -10 -131 -21 -170 -28 -228 -40 -37 -7 -68
-12 -70 -11 -1 2 10 11 25 21 68 44 248 200 354 307 120 121 246 273 331 399
68 101 159 288 194 398 16 50 31 91 34 91 3 0 18 -37 34 -82z m-1114 -144 c58
-32 129 -104 158 -160 91 -178 57 -422 -83 -610 -125 -166 -244 -248 -710
-489 -304 -157 -523 -274 -630 -338 -33 -19 -61 -34 -62 -33 -1 1 11 35 27 75
40 98 58 190 56 287 l-2 81 120 61 c67 34 213 106 326 160 395 191 496 242
595 301 181 108 252 189 262 300 13 140 -70 242 -196 243 -56 0 -84 -26 -84
-78 0 -44 30 -74 74 -74 70 0 76 -110 7 -143 -94 -45 -234 51 -245 170 -9 93
36 186 117 239 79 52 183 55 270 8z m2410 6 c86 -44 141 -131 142 -225 1 -59
-26 -123 -65 -157 -90 -79 -217 -65 -225 25 -4 52 12 77 50 77 73 0 105 85 49
132 -25 22 -35 24 -79 18 -110 -14 -177 -97 -176 -220 1 -81 23 -127 93 -195
105 -102 123 -112 998 -541 l212 -104 -1 -77 c-2 -119 25 -238 74 -336 l19
-38 -32 16 c-17 9 -65 37 -106 61 -41 24 -76 44 -78 44 -1 0 -38 20 -82 44
-44 24 -169 90 -279 147 -277 142 -517 273 -597 327 -82 53 -201 171 -252 248
-157 236 -160 507 -8 670 102 110 231 141 343 84z m-4070 -902 c119 -38 235
-173 258 -299 27 -151 -31 -338 -157 -506 -72 -96 -136 -157 -266 -254 -232
-173 -494 -411 -632 -574 l-42 -50 -1 60 c-1 33 -3 67 -5 75 -13 65 -39 149
-64 204 l-29 64 53 54 c187 193 522 465 781 634 142 92 174 137 174 244 -1
112 -104 217 -200 203 -34 -4 -60 -38 -60 -78 0 -35 19 -58 63 -74 63 -24 57
-102 -10 -120 -173 -47 -302 135 -208 294 67 115 211 166 345 123z m5655 6
c76 -16 156 -80 188 -153 40 -90 10 -200 -67 -248 -33 -21 -53 -27 -103 -27
-74 0 -103 19 -103 69 0 36 12 49 52 59 28 6 50 35 55 73 5 34 -37 75 -77 76
-102 2 -193 -108 -185 -223 7 -95 39 -135 178 -227 160 -104 419 -302 562
-428 135 -119 266 -251 261 -265 -2 -8 -18 -48 -35 -89 -17 -40 -33 -83 -35
-95 -2 -11 -7 -37 -11 -56 -9 -49 -14 -90 -14 -125 l-1 -30 -32 40 c-59 74
-289 302 -392 388 -55 47 -162 131 -236 188 -200 152 -295 258 -370 414 -124
255 -78 488 121 616 79 51 146 62 244 43z m-2635 -169 c106 -7 148 -11 265
-26 76 -10 92 -12 168 -24 256 -42 558 -126 762 -212 94 -40 329 -155 497
-244 466 -247 804 -466 1074 -694 603 -510 985 -1189 1103 -1960 24 -153 34
-330 35 -580 l1 -160 -203 -3 -203 -2 14 27 c32 62 40 133 33 282 -3 80 -8
157 -10 171 -3 14 -7 48 -11 75 -23 198 -138 643 -179 694 -6 8 -10 15 -8 15
8 2 -61 163 -116 271 -206 402 -494 750 -862 1040 -103 81 -358 251 -495 330
-233 134 -505 257 -759 345 -102 34 -374 107 -471 125 -90 17 -290 45 -355 50
-41 4 -91 9 -110 12 -61 9 -751 11 -850 2 -124 -11 -288 -28 -320 -34 -14 -2
-54 -9 -90 -15 -236 -37 -587 -132 -745 -200 -11 -5 -69 -30 -130 -55 -494
-210 -983 -538 -1290 -864 -39 -41 -78 -82 -87 -92 -51 -53 -198 -245 -262
-343 -164 -247 -277 -487 -370 -788 -39 -126 -53 -181 -71 -278 -3 -14 -7 -36
-10 -50 -11 -50 -21 -112 -29 -185 -34 -273 -27 -441 20 -513 9 -13 14 -26 11
-28 -5 -6 -398 -6 -404 0 -5 5 -4 342 2 451 8 157 20 256 52 420 14 72 27 139
29 150 11 62 90 312 130 413 44 110 123 277 174 367 226 399 455 669 821 970
179 148 538 382 839 547 397 218 634 331 841 401 96 33 296 89 359 100 14 3
36 8 50 11 14 3 36 8 50 10 14 3 50 10 80 16 30 5 77 13 105 16 27 4 57 7 65
9 8 1 47 5 85 10 39 4 79 9 90 11 11 2 79 7 150 10 72 4 131 7 132 8 5 4 310
-3 403 -9z m112 -619 c65 -4 126 -9 135 -10 10 -2 49 -7 86 -11 37 -3 76 -8
85 -10 9 -1 37 -6 62 -10 25 -4 54 -9 65 -11 11 -3 36 -6 56 -9 143 -19 524
-137 729 -226 l115 -50 0 -80 c1 -43 -2 -79 -5 -80 -3 -1 -82 -2 -176 -3
l-172 -1 -4 62 c-3 48 -9 66 -23 78 -45 33 -124 4 -126 -48 0 -12 -2 -38 -2
-57 l-2 -35 -175 0 -175 0 -1 95 c0 53 -6 105 -12 117 -14 26 -60 43 -87 33
-41 -15 -50 -39 -55 -144 l-5 -101 -168 0 c-93 0 -172 2 -175 5 -4 3 -7 63 -7
134 l0 128 -29 25 c-22 19 -36 23 -58 19 -57 -11 -63 -26 -66 -175 l-3 -136
-169 0 c-93 0 -172 3 -176 7 -3 4 -6 58 -6 120 0 142 -2 152 -43 174 -28 15
-37 16 -64 5 -16 -7 -34 -23 -38 -35 -4 -11 -7 -77 -8 -146 l-1 -125 -174 0
-175 0 -5 100 c-3 55 -9 108 -14 117 -17 36 -74 43 -111 14 -26 -21 -27 -26
-30 -121 -1 -55 -3 -102 -3 -105 -1 -3 -80 -5 -174 -5 l-173 0 -5 57 c-6 64
-20 85 -65 94 -22 4 -38 0 -58 -16 -23 -19 -27 -29 -27 -76 0 -49 -2 -54 -22
-55 -67 -4 -306 -4 -321 -1 -16 4 -18 15 -16 93 l1 88 97 40 c157 66 454 162
540 176 18 3 37 7 41 10 3 2 22 7 41 10 19 4 70 13 114 21 44 8 98 17 120 20
22 3 51 7 63 10 13 3 52 7 85 10 34 3 73 7 87 9 14 3 90 8 170 11 80 4 146 7
147 8 6 4 466 -2 565 -8z m-4566 -307 c159 -38 299 -151 372 -301 22 -46 45
-105 51 -133 39 -180 2 -366 -113 -560 -118 -200 -195 -360 -263 -545 -40
-111 -100 -306 -108 -353 -3 -17 -12 -57 -20 -87 -21 -83 -50 -258 -59 -355
-14 -147 -20 -261 -20 -442 l-1 -213 -208 0 -207 0 14 23 c34 52 47 134 51
318 2 101 6 209 9 239 3 30 8 82 11 115 3 33 7 78 10 100 3 22 8 58 11 80 3
22 7 47 9 55 2 8 7 35 10 60 8 60 50 244 81 354 89 317 226 616 416 904 89
136 115 226 93 322 -18 83 -79 156 -154 187 -73 31 -185 11 -246 -44 -59 -52
-94 -142 -74 -186 6 -14 25 -31 42 -38 41 -17 76 3 103 60 12 24 33 50 48 58
57 30 123 -13 133 -85 10 -77 -65 -194 -153 -238 -59 -29 -174 -27 -237 6
-156 79 -207 270 -122 457 81 178 322 290 521 242z m8579 -2 c64 -16 176 -86
233 -144 70 -74 108 -190 99 -308 -6 -82 -22 -119 -80 -183 -136 -147 -354
-115 -447 67 -40 79 -28 156 29 186 57 29 102 8 132 -62 21 -49 49 -67 90 -58
55 12 73 68 45 136 -68 162 -275 202 -397 78 -53 -54 -73 -106 -73 -189 1 -98
14 -130 116 -291 194 -304 323 -598 416 -949 34 -125 33 -124 61 -285 42 -239
57 -418 65 -740 2 -107 7 -139 24 -179 12 -27 22 -50 22 -52 0 -2 -91 -4 -202
-4 l-203 0 0 238 c0 250 -11 413 -40 577 -73 427 -207 801 -406 1135 -117 195
-150 307 -145 475 4 118 28 201 83 293 80 132 208 228 348 262 39 9 189 7 230
-3z m-6235 -1677 l0 -1590 -35 -1 c-19 0 -51 -1 -70 -1 -19 0 -61 1 -94 1
l-58 1 0 1525 0 1525 66 37 c86 48 174 93 184 93 4 0 7 -715 7 -1590z m3928
1452 l22 -14 -2 -1515 -3 -1515 -80 0 c-44 0 -97 1 -117 1 l-38 1 0 1581 0
1581 98 -53 c53 -29 107 -59 120 -67z m-4338 -1567 l0 -1475 -22 0 c-30 -1
-1041 -1 -1093 0 l-40 0 -1 115 c0 135 -10 154 -85 162 -119 14 -191 98 -192
223 -2 221 49 545 123 784 206 669 607 1199 1224 1617 39 27 74 48 79 49 4 0
7 -664 7 -1475z m4805 1250 c426 -338 744 -772 929 -1268 34 -90 98 -300 111
-365 15 -69 54 -294 53 -300 -1 -4 2 -29 5 -57 4 -27 10 -105 12 -172 4 -116
3 -123 -23 -175 -36 -70 -78 -98 -149 -98 -44 0 -58 -5 -78 -25 -26 -25 -27
-30 -27 -187 l1 -78 -67 0 c-426 -3 -1043 -1 -1049 3 -6 4 -10 2909 -4 2925 2
6 196 -131 286 -203z m-843 183 c2 -7 4 -114 3 -238 l-1 -225 -177 -3 -177 -2
0 92 c-1 99 -8 120 -51 137 -31 11 -83 -8 -93 -35 -4 -11 -7 -58 -7 -106 l1
-88 -181 0 -180 0 1 68 c1 37 1 80 1 95 -1 34 -41 77 -67 72 -11 -2 -25 -4
-31 -4 -7 -1 -22 -10 -33 -21 -17 -17 -20 -33 -20 -115 l0 -95 -175 0 c-96 0
-176 3 -176 8 -1 4 -2 45 -3 92 -1 109 -18 140 -75 140 -62 0 -75 -24 -79
-141 l-4 -99 -174 0 c-132 0 -174 3 -175 13 0 6 -1 52 -2 100 -2 80 -4 91 -26
108 -30 24 -72 24 -102 0 -21 -17 -23 -26 -24 -117 l0 -99 -178 -3 -177 -2 0
95 c0 88 -2 98 -25 120 -24 25 -43 29 -81 19 -34 -9 -47 -47 -48 -141 l-1 -88
-177 -3 -178 -2 0 90 c0 83 -2 93 -25 115 -30 31 -66 32 -100 2 -25 -21 -27
-27 -27 -115 l0 -92 -179 0 -179 0 1 240 1 240 1698 0 c1349 0 1699 -3 1702
-12z m-2 -627 c3 0 5 -110 5 -244 l0 -242 -178 -3 -177 -2 0 92 c-1 100 -8
120 -52 137 -33 12 -86 -13 -94 -45 -3 -13 -7 -59 -8 -102 l-1 -77 -178 -3
-178 -2 2 90 c1 96 -13 139 -49 141 -85 7 -101 -16 -102 -138 l0 -93 -177 0
-178 0 0 100 c-1 110 -7 123 -63 139 -27 8 -37 6 -60 -14 -26 -22 -27 -29 -30
-124 l-4 -101 -174 0 c-132 0 -174 3 -175 13 0 6 -1 52 -2 100 -2 80 -4 91
-26 108 -30 24 -72 24 -102 0 -21 -16 -23 -26 -23 -120 l-1 -101 -177 0 -178
0 0 95 c0 88 -2 98 -25 120 -30 31 -66 32 -100 2 -25 -21 -27 -28 -28 -120
l-1 -97 -178 0 -178 0 0 90 c0 83 -2 93 -25 115 -30 31 -66 32 -101 2 -25 -22
-26 -27 -26 -115 l1 -92 -180 0 -179 0 1 243 c1 133 5 244 9 247 7 4 3372 5
3390 1z m2 -660 c3 -14 2 -434 -1 -467 -1 -8 -56 -11 -176 -11 l-175 0 0 91
c-1 97 -9 118 -51 135 -33 12 -85 -10 -95 -41 -4 -12 -7 -60 -6 -105 l1 -81
-179 0 -178 1 0 61 c-1 33 -1 75 -1 92 -2 78 -91 106 -138 45 -8 -10 -12 -52
-13 -108 l0 -92 -177 2 -178 2 0 91 c0 114 -16 144 -75 144 -30 0 -43 -6 -59
-26 -18 -23 -21 -41 -21 -119 l0 -92 -177 1 -176 1 -1 98 c-1 91 -3 100 -25
118 -30 24 -72 24 -102 0 -21 -17 -23 -27 -24 -117 l-1 -99 -177 -2 -177 -1 0
94 c0 87 -2 97 -25 119 -30 31 -66 32 -100 2 -25 -21 -27 -28 -28 -117 l-2
-95 -177 -2 -178 -2 0 90 c0 82 -2 92 -25 114 -13 14 -36 25 -50 25 -27 0 -75
-39 -76 -62 0 -7 -1 -47 -2 -88 l-2 -75 -177 -2 -177 -2 1 242 c0 133 2 245 4
248 2 4 766 6 1698 6 1555 0 1695 -1 1698 -16z m-1 -640 c1 -3 2 -128 3 -277
l1 -271 -177 0 -178 0 0 106 c0 127 -14 155 -74 155 -65 0 -77 -23 -78 -151
l-1 -110 -177 0 -177 1 -1 109 c0 95 -3 113 -20 129 -31 32 -78 33 -107 4 -24
-24 -25 -31 -25 -134 l0 -109 -177 1 -178 1 0 105 c-1 58 -4 115 -8 127 -11
30 -66 48 -100 32 -38 -17 -48 -52 -46 -155 1 -50 -1 -96 -4 -102 -4 -5 -75
-9 -177 -9 -147 1 -170 3 -171 16 0 9 -1 58 -1 110 -1 80 -4 96 -22 117 -31
34 -70 38 -103 9 -27 -22 -28 -25 -28 -137 l0 -115 -177 0 -178 1 0 106 c0 93
-3 111 -21 134 -25 31 -75 35 -109 8 -20 -16 -22 -27 -23 -133 l-1 -116 -178
0 -178 0 0 105 c0 95 -2 108 -22 129 -29 31 -77 31 -108 -2 -21 -22 -23 -34
-24 -127 l-1 -103 -176 -1 -176 -1 0 271 c0 149 1 274 3 277 4 7 3394 8 3395
0z m4 -843 l1 -138 -96 0 c-107 -1 -3278 -1 -3297 0 -9 0 -12 35 -11 133 0 72
2 135 4 138 2 3 767 6 1701 5 l1698 -1 0 -137z m3240 -10 c6 -5 10 -779 6
-925 l-1 -23 -709 0 -708 0 0 468 c0 257 3 472 8 477 8 12 1393 14 1404 3z
m-8517 -13 c4 -3 6 -840 3 -915 -1 -13 -86 -15 -708 -15 l-708 0 0 465 0 465
35 5 c46 7 1371 2 1378 -5z m6830 -275 l122 0 -1 -172 c0 -95 -2 -180 -5 -188
-3 -13 -388 -15 -3396 -15 l-3393 0 0 187 -1 187 71 3 c51 2 4983 1 6603 -2z
m-5518 -820 l0 -290 -32 -1 c-35 -1 -311 -1 -339 0 -14 1 -17 18 -17 134 0 72
0 144 -1 158 -1 35 -29 68 -61 73 -30 4 -75 -17 -84 -39 -3 -9 -6 -86 -6 -171
l0 -154 -32 -1 c-105 -2 -311 1 -316 5 -2 3 -4 73 -4 156 1 143 0 152 -22 177
-29 33 -78 36 -109 5 -20 -20 -21 -32 -22 -182 0 -121 -3 -160 -12 -161 -17 0
-337 0 -361 0 -16 1 -18 9 -16 72 5 125 74 214 175 225 56 7 84 21 96 48 5 11
9 69 8 129 l0 107 577 0 578 0 0 -290z m378 -2331 l-3 -2621 -758 -1 c-417 0
-761 3 -765 7 -4 4 -8 236 -8 514 -1 279 -2 513 -3 519 -2 20 -44 42 -90 48
-52 7 -95 28 -129 63 -52 56 -55 77 -56 355 -1 142 2 261 7 264 4 2 350 5 768
4 l761 0 24 24 c13 13 24 37 25 52 0 15 1 785 1 1711 l1 1682 113 0 114 0 -2
-2621z m3587 2329 l0 -288 -35 0 c-52 -1 -3319 -1 -3361 -1 l-36 1 0 290 0
290 1716 -2 1716 -3 0 -287z m397 -1423 c3 -1630 4 -1715 21 -1732 17 -17 61
-18 715 -20 383 -1 725 -2 759 -3 l62 0 -2 -274 -2 -274 -30 -43 c-37 -53 -85
-87 -134 -94 -72 -12 -81 -16 -97 -40 -14 -22 -16 -82 -16 -535 l-1 -510 -36
-1 c-20 0 -360 0 -756 -1 l-720 0 -3 2621 -2 2621 120 0 120 0 2 -1715z m1276
1608 c-1 -60 2 -117 5 -128 9 -27 40 -45 87 -50 113 -12 179 -89 187 -222 4
-57 2 -73 -8 -74 -20 0 -319 0 -349 0 l-25 1 2 147 c3 163 -4 197 -45 210 -42
13 -72 4 -91 -28 -15 -24 -17 -51 -16 -175 0 -81 -3 -148 -8 -151 -13 -8 -327
-6 -335 2 -4 3 -7 76 -7 160 -1 168 -7 187 -62 198 -77 15 -91 -19 -89 -210 1
-130 -1 -153 -14 -153 -28 -1 -325 -2 -340 -1 -13 1 -15 39 -14 284 1 155 2
285 3 290 0 4 253 7 560 7 l560 0 -1 -107z m-7733 -2113 l0 -1935 -208 -1
c-114 0 -207 3 -207 6 0 4 6 13 14 19 7 6 21 39 31 74 17 58 18 170 18 1848 0
1344 -3 1791 -12 1807 -6 12 -9 22 -6 22 3 0 -6 23 -20 50 l-26 50 208 -2 208
-3 0 -1935z m565 1936 c0 -2 -12 -30 -27 -62 l-28 -59 0 -1815 0 -1815 28 -59
c15 -32 27 -59 27 -61 0 -1 -92 -2 -205 -2 l-205 0 0 228 c0 126 0 969 0 1874
0 905 0 1674 0 1710 l0 65 205 0 c113 0 205 -2 205 -4z m7955 -1937 l0 -1939
-207 0 -207 0 27 58 27 57 0 1825 0 1825 -24 50 c-14 28 -26 53 -28 56 -2 3
90 6 204 6 l208 0 0 -1938z m557 1934 c4 -2 -5 -29 -20 -61 l-27 -57 -1 -1805
c-1 -1741 0 -1807 18 -1860 10 -30 23 -59 28 -64 6 -6 10 -14 10 -18 0 -4 -92
-8 -205 -8 l-205 0 -1 83 c0 95 0 3416 1 3643 l0 151 198 0 c108 0 200 -2 204
-4z m-7014 -452 l32 -1 0 -259 0 -258 -177 -1 c-98 0 -185 2 -194 4 -13 4 -16
27 -16 161 l0 157 -27 23 c-35 30 -71 29 -101 -2 -24 -24 -25 -28 -25 -183 l0
-159 -175 0 c-171 0 -175 0 -176 21 0 11 -1 86 -2 164 -2 138 -3 145 -26 163
-30 25 -72 24 -99 -1 -26 -25 -24 -10 -26 -195 l-1 -150 -195 0 -195 0 0 255
0 255 35 5 c26 4 1156 4 1368 1z m2187 0 c11 -1 14 -4485 3 -4496 -5 -5 -1505
-10 -1609 -6 -14 1 -16 206 -16 2251 l0 2249 41 3 c32 2 1535 1 1581 -1z
m1775 0 l35 -1 0 -2244 c0 -1235 -3 -2248 -7 -2251 -8 -8 -1626 -10 -1634 -3
-3 4 -7 3335 -4 4400 l0 97 28 3 c21 2 1408 1 1582 -1z m1963 0 l28 -1 -3
-257 -3 -258 -187 -1 c-185 -1 -188 -1 -189 20 0 11 0 83 0 159 0 133 -1 140
-24 163 -31 31 -66 31 -102 0 l-28 -24 -1 -144 c-1 -78 -2 -150 -3 -159 -1
-15 -20 -17 -173 -15 l-172 1 -2 150 c-2 186 0 170 -26 195 -27 25 -69 26 -99
1 -25 -20 -25 -11 -29 -317 l0 -31 -182 1 -182 1 -1 250 c-1 138 2 255 6 260
6 8 1054 12 1372 6z m-5893 -932 c0 -293 11 -260 -85 -260 -25 0 -103 0 -174
0 l-128 1 0 143 c0 78 -3 155 -7 170 -9 36 -58 59 -95 46 -46 -18 -50 -34 -51
-201 l0 -157 -32 -3 c-18 -2 -98 -1 -177 2 l-143 5 -2 157 c-1 145 -3 159 -22
178 -28 29 -79 29 -107 1 -21 -20 -22 -30 -22 -181 l0 -160 -195 2 -195 3 -1
250 c0 138 1 253 3 256 1 4 324 6 718 7 l715 0 0 -259z m5918 0 l1 -259 -102
-1 c-162 -1 -270 1 -275 6 -2 2 -4 71 -3 154 1 143 0 151 -22 177 -29 34 -80
36 -111 4 -19 -19 -21 -32 -21 -180 l0 -160 -72 -1 c-92 -1 -148 -1 -220 0
l-58 1 -1 160 c0 148 -2 162 -20 181 -31 30 -82 28 -110 -4 -21 -25 -22 -35
-22 -177 0 -83 -1 -153 -4 -155 -4 -5 -142 -7 -283 -6 l-80 1 1 248 c1 136 2
252 3 258 1 8 190 12 700 12 l698 0 1 -259z m-5918 -679 l0 -260 -194 0 -193
0 -1 133 c0 72 0 145 -1 160 -1 35 -42 77 -76 77 -14 0 -37 -11 -50 -25 -24
-24 -25 -28 -25 -185 l0 -160 -176 2 -176 3 -2 163 c-1 161 -1 163 -26 182
-33 25 -71 25 -98 0 -12 -12 -23 -24 -23 -28 -1 -4 -2 -77 -3 -162 l-1 -155
-195 0 -195 0 -1 250 c0 138 1 253 3 258 2 4 326 7 719 7 l714 0 0 -260z
m5918 0 l0 -260 -189 0 c-173 0 -189 1 -190 18 0 9 0 80 0 157 0 159 -7 180
-65 191 -30 6 -40 3 -62 -20 -26 -26 -26 -27 -27 -183 l-1 -158 -174 0 -175 0
0 150 c-1 83 -4 159 -8 171 -8 22 -46 44 -75 44 -9 0 -28 -9 -42 -20 -26 -20
-29 -43 -30 -293 l0 -57 -182 2 -183 3 0 258 0 257 701 0 701 0 1 -260z
m-5920 -687 l2 -273 -70 -1 c-38 0 -86 -1 -105 -1 -19 0 -75 1 -124 1 l-89 1
0 148 c0 81 0 159 -1 173 -1 38 -36 69 -76 69 -22 0 -41 -8 -55 -22 -19 -20
-20 -34 -20 -195 l0 -173 -42 -1 c-103 -2 -303 3 -307 7 -3 2 -4 78 -4 169 1
147 0 167 -17 188 -11 14 -31 27 -44 29 -30 6 -81 -22 -88 -48 -2 -11 -4 -92
-3 -181 l1 -163 -31 -1 c-133 -2 -349 2 -354 6 -3 4 -6 127 -6 274 l0 268 715
-1 715 -1 3 -272z m5919 0 l1 -273 -71 -1 c-127 -1 -301 2 -305 6 -2 2 -4 80
-4 173 0 162 -1 171 -21 190 -42 39 -102 29 -121 -21 -8 -21 -12 -85 -12 -189
l2 -158 -43 -1 c-24 0 -59 -1 -78 -1 -19 0 -79 1 -133 1 l-97 1 0 175 c0 192
-2 197 -63 214 -27 8 -36 6 -61 -15 l-30 -25 0 -170 c1 -94 -1 -173 -4 -175
-10 -10 -357 -9 -358 1 -3 22 -5 530 -2 536 1 3 316 5 700 5 l698 -1 2 -272z
m-7226 -1290 c0 -10 1 -442 2 -960 2 -890 3 -943 20 -960 17 -17 173 -18 3523
-20 l3506 -2 24 24 c13 13 24 34 25 47 0 13 1 442 1 953 l1 930 706 -1 c388
-1 708 -2 711 -3 4 -1 4 -2273 1 -2387 l-1 -22 -4967 2 -4968 1 -1 1208 -2
1207 709 0 c668 0 709 -1 710 -17z m6943 -1083 c2 -8 3 -73 3 -145 l-2 -130
-3388 0 c-2250 0 -3391 3 -3396 10 -6 8 -8 280 -2 280 0 0 1527 0 3391 0 3005
0 3391 -2 3394 -15z m1 -570 l0 -135 -3392 0 c-1866 0 -3394 2 -3394 5 -1 3
-2 65 -3 138 l-2 132 3396 -2 3395 -3 0 -135z"/>
</g>
</svg>
